<svg width="409" height="96" viewBox="0 0 409 96" version="1.1" xmlns="http://www.w3.org/2000/svg" xmlns:xlink="http://www.w3.org/1999/xlink">
<g id="Canvas" transform="translate(-1228 1858)">
<g id="logo-h">
<g id="Vector">
<use xlink:href="#path0_fill" transform="translate(1228 -1858)" fill="#ffffff"/>
</g>
<g id="Vector">
<use xlink:href="#path1_fill" transform="translate(1228 -1858)" fill="#ffffff"/>
</g>
<g id="Vector">
<use xlink:href="#path2_fill" transform="translate(1512.9 -1823.3)" fill="#ffffff"/>
</g>
<g id="Vector">
<use xlink:href="#path3_fill" transform="translate(1502.2 -1833.4)" fill="#ffffff"/>
</g>
<g id="Vector">
<use xlink:href="#path4_fill" transform="translate(1357.1 -1833.41)" fill="#ffffff"/>
</g>
<g id="Vector">
<use xlink:href="#path5_fill" transform="translate(1458 -1833.4)" fill="#ffffff"/>
</g>
<g id="Vector">
<use xlink:href="#path6_fill" transform="translate(1523.3 -1833.4)" fill="#ffffff"/>
</g>
<g id="Vector">
<use xlink:href="#path7_fill" transform="translate(1576.7 -1833.3)" fill="#ffffff"/>
</g>
</g>
</g>
<defs>
<path id="path0_fill" d="M 125.2 35.2L 125.2 95.2L 109.5 95.2L 109.5 35.2C 109.4 24.4 100.6 15.7 89.7 15.8C 79.6 15.9 71.3 23.6 70.4 33.6L 70.4 60C 70.4 69.3 66.9 77.5 59.8 84.6C 52.7 91.7 44.5 95.2 35.2 95.2C 25.9 95.2 17.8 91.7 10.7 84.6C 3.6 77.6 2.38419e-08 69.4 2.38419e-08 60L 0.1 24.7L 15.8 24.7L 15.7 60C 15.8 70.8 24.7 79.5 35.5 79.3C 45.5 79.2 53.9 71.5 54.8 61.5L 54.8 35.3C 54.8 26 58.3 17.8 65.4 10.7C 72.4 3.6 80.6 2.38419e-08 89.9 2.38419e-08C 99.2 2.38419e-08 107.3 3.5 114.4 10.6C 121.5 17.7 125.1 25.9 125.2 35.2Z"/>
<path id="path1_fill" d="M 15.9 0L 0 0L 0 15.9L 15.9 15.9L 15.9 0Z"/>
<path id="path2_fill" d="M 0 -7.62939e-07L 0 34.8C 0 34 0 33.1 0 32.2L 0 -7.62939e-07Z"/>
<path id="path3_fill" d="M -1.2207e-05 7.62939e-07L -1.2207e-05 43.7C -1.2207e-05 43.3 -1.2207e-05 42.9 -1.2207e-05 42.4L -1.2207e-05 7.62939e-07Z"/>
<path id="path4_fill" d="M 111.5 0.014319L 21.3 0.014319C 15.8 -0.185681 10.5 1.71432 6.40001 5.41432C 2.40001 9.01432 0.0999939 14.2143 0.199994 19.5143C 0.199994 26.6143 1.9 30.1143 4.1 32.7143C 5.7 34.6143 12.1 37.2143 14.5 38.1143C 17.6 39.5143 17.8 39.7143 22.8 41.8143C 28.1 44.2143 30.7 47.4143 30.7 51.5143C 30.7 54.1143 29.6 56.6143 27.6 58.3143C 25.7 60.2143 23.1 61.2143 20.4 61.2143C 17.8 61.3143 15.3 60.2143 13.6 58.4143C 11.9 56.6143 10.8 54.3143 10.5 51.8143L -3.05176e-06 54.5143C 0.899997 59.3143 3.4 63.6143 7.1 66.7143C 10.8 69.9143 15.8 70.7143 20.6 70.6143C 26.1 70.7143 31.2 69.4143 35.2 65.6143C 39.2 62.0143 41.5 56.9143 41.4 51.5143C 41.7 45.2143 38.7 39.2143 33.5 35.8143L 18.9 29.3143C 13.6 26.9143 11 23.7143 11 19.5143C 11 16.9143 12.1 14.4143 14.1 12.7143C 15.6 11.4143 17.3 10.6143 19.2 10.3143L 59.9 10.3143L 59.9 70.3143L 70.6 70.3143L 70.6 10.3143L 102.3 10.3143L 111.5 0.014319Z"/>
<path id="path5_fill" d="M 50.6024 62.3C 38.9024 73.4 20.5023 73.4 8.70235 62.3C 3.00235 57.1 -0.0976479 49.8 0.00235215 42.2L 0.00235215 7.62939e-07L 10.6023 7.62939e-07L 10.6023 42.2C 10.6023 47.1 12.6023 51.8 16.2023 55.2C 19.8023 58.7 24.7023 60.6 29.7023 60.6C 34.7023 60.7 39.6024 58.8 43.1024 55.2C 46.7024 51.9 48.8023 47.1 48.7023 42.2L 48.7023 7.62939e-07L 59.3023 7.62939e-07L 59.3023 42.2C 59.4023 49.8 56.3024 57.1 50.6024 62.3Z"/>
<path id="path6_fill" d="M 63.6 35.002C 63.7 44.402 59.8 53.302 52.9 59.702C 46.1 66.402 36.9 70.102 27.3 69.902L -6.10352e-06 69.902L -6.10352e-06 0.00197627L 27.3 0.00197627C 36.9 -0.0980237 46.1 3.60198 52.9 10.302C 59.8 16.602 63.7 25.602 63.6 35.002ZM 53 35.002C 53.1 28.402 50.3 22.002 45.4 17.602C 40.6 12.802 34.1 10.202 27.3 10.302L 10.5 10.302L 10.5 59.802L 27.3 59.802C 34.1 59.902 40.6 57.302 45.4 52.502C 50.3 47.902 53.1 41.602 53 35.002Z"/>
<path id="path7_fill" d="M 35.1 36.4L 35.1 69.7L 24.5 69.7L 24.5 36.4L -1.2207e-05 -7.62939e-07L 12.5 -7.62939e-07L 29.8 25.6L 47.1 -7.62939e-07L 59.7 -7.62939e-07L 35.1 36.4Z"/>
</defs>
</svg>
