<svg width="126" height="96" viewBox="0 0 126 96" fill="none" xmlns="http://www.w3.org/2000/svg">
<path d="M125.2 35.2V95.2H109.5V35.2C109.4 24.4 100.6 15.7 89.7 15.8C79.6 15.9 71.3 23.6 70.4 33.6V60C70.4 69.3 66.9 77.5 59.8 84.6C52.7 91.7 44.5 95.2 35.2 95.2C25.9 95.2 17.8 91.7 10.7 84.6C3.6 77.6 0 69.4 0 60L0.1 24.7H15.8L15.7 60C15.8 70.8 24.7 79.5 35.5 79.3C45.5 79.2 53.9 71.5 54.8 61.5V35.3C54.8 26 58.3 17.8 65.4 10.7C72.4 3.6 80.6 0 89.9 0C99.2 0 107.3 3.5 114.4 10.6C121.5 17.7 125.1 25.9 125.2 35.2Z" fill="white"/>
<path d="M15.9 0H0V15.9H15.9V0Z" fill="white"/>
</svg>
