<svg width="240" height="240" viewBox="0 0 240 240" fill="none" xmlns="http://www.w3.org/2000/svg">
<path d="M3 3H237V237H3V3Z" stroke="white" stroke-width="6" stroke-miterlimit="10"/>
<path d="M188.981 83.8569V149.973H171.68V83.8569C171.57 71.9561 161.873 62.3693 149.862 62.4795C138.733 62.5897 129.587 71.0745 128.595 82.0938V111.185C128.595 121.433 124.738 130.468 116.915 138.292C109.091 146.116 100.055 149.973 89.8072 149.973C79.5592 149.973 70.6336 146.116 62.8099 138.292C54.9862 130.468 51.1295 121.433 51.0193 111.185L51.2397 72.3968H68.5399L68.4298 111.295C68.5399 123.196 78.3471 132.783 90.2479 132.562C101.267 132.452 110.523 123.967 111.515 112.948V83.9671C111.515 73.7191 115.372 64.6833 123.196 56.8596C131.019 49.0359 140.055 45.1792 150.303 45.1792C160.551 45.1792 169.477 49.0359 177.3 56.8596C185.014 64.6833 188.871 73.7191 188.981 83.8569Z" fill="white"/>
<path d="M68.6501 45.0688H51.1294V62.5895H68.6501V45.0688Z" fill="white"/>
<path d="M106.887 157.025H63.2507C60.6061 156.915 57.9615 157.906 56.0882 159.67C54.1047 161.433 53.0028 163.857 53.113 166.501C53.113 169.917 53.9945 171.57 54.9862 172.893C55.7576 173.774 58.843 175.097 60.0551 175.537C61.5978 176.198 61.5978 176.309 64.0221 177.3C66.5565 178.402 67.8788 180.055 67.8788 182.039C67.8788 183.251 67.3278 184.463 66.3361 185.344C65.3444 186.226 64.1322 186.777 62.8099 186.777C61.5978 186.777 60.3857 186.336 59.5041 185.455C58.6226 184.573 58.1818 183.471 57.9614 182.259L52.8926 183.581C53.3333 185.895 54.5455 187.989 56.3086 189.422C58.0716 190.964 60.4959 191.185 62.8099 191.185C65.4546 191.185 67.989 190.744 69.8623 188.871C71.8457 187.108 72.9477 184.683 72.8375 182.039C73.0579 178.953 71.5152 176.088 68.9807 174.435L61.9284 171.24C59.394 170.138 58.0716 168.485 58.0716 166.501C58.0716 165.289 58.6226 164.077 59.6143 163.196C60.2755 162.535 61.157 162.204 62.1488 161.984H81.8733V190.964H87.0524V161.873H102.369L106.887 157.025Z" fill="white"/>
<path d="M126.281 187.218C120.551 192.617 111.736 192.617 106.006 187.218C103.251 184.683 101.708 181.157 101.818 177.521V157.025H106.887V177.411C106.887 179.835 107.879 182.039 109.532 183.692C111.295 185.344 113.609 186.336 116.033 186.336C118.457 186.336 120.771 185.455 122.535 183.692C124.298 182.039 125.289 179.835 125.289 177.411V157.025H130.468V177.411C130.579 181.157 129.036 184.683 126.281 187.218Z" fill="white"/>
<path d="M164.187 173.994C164.187 178.512 162.314 182.81 159.008 185.895C155.703 189.091 151.295 190.854 146.667 190.854H133.444V157.025H146.667C151.295 156.914 155.703 158.788 159.008 161.983C162.314 165.069 164.187 169.476 164.187 173.994ZM159.008 173.994C159.008 170.799 157.686 167.713 155.372 165.509C153.058 163.195 149.862 161.983 146.667 161.983H138.512V185.895H146.667C149.973 185.895 153.058 184.683 155.372 182.369C157.686 180.275 159.008 177.19 159.008 173.994Z" fill="white"/>
<path d="M176.198 174.656V190.744H171.13V174.656L159.229 157.025H165.289L173.664 169.366L182.039 157.025H188.099L176.198 174.656Z" fill="white"/>
</svg>
